# xmcd
#
# Track frame offsets:
#	150
#	53087
#	108158
#	150495
#	192161
#	245175
#	278451
#
# Disc length: 4309 seconds
#
# Revision: 0
# Processed by: cddbd v1.5.1PL0 Copyright (c) Steve Scherf et al.
# Submitted via: EasyCDDAExtractor 5.0.2.1
#
DISCID=5310d307
DTITLE=Comity - The Deus Ex-Machina As A Forgotten Genius (Andy Warhol Sucks)
DYEAR=2004
DGENRE=Noise
TTITLE0=About Fracture of the Last Solid Element (The Deus Ex-Machina on the R
TTITLE0=oad Again)
TTITLE1=A Track to Forget What Has Been Forgotten (Introduce Yourself to Me/Us
TTITLE1=Please Call 355.6185214)
TTITLE2=Her Own King Theory (What the Fuck is Miscommunication?)
TTITLE3=Alleluia Versus Amen (As Eros Kill)
TTITLE4=A Farewell to a Crimson King in a Crimson Way... (Hats Off Mister Sali
TTITLE4=nger)
TTITLE5=Making My Paints Move...
TTITLE6=Variation on the Same Mistake
EXTD=
EXTT0=
EXTT1=
EXTT2=
EXTT3=
EXTT4=
EXTT5=
EXTT6=
PLAYORDER=
